<?xml version="1.0" encoding="UTF-8"?>
<svg width="24px" height="24px" viewBox="0 0 24 24" version="1.1" xmlns="http://www.w3.org/2000/svg" xmlns:xlink="http://www.w3.org/1999/xlink">
    <title>usz-icon-anfahrt-blue</title>
    <g id="usz-icon-anfahrt-blue" stroke="none" stroke-width="1" fill="none" fill-rule="evenodd">
        <g id="Group-12" transform="translate(1.000000, 1.000000)" stroke="#005EA8" stroke-linecap="round" stroke-linejoin="round" stroke-width="1.5">
            <path d="M21.999978,8.60895652 L21.999978,4.06982609 C21.999978,3.43017391 21.6343144,2.85417391 21.0779639,2.61626087 L15.5205902,0.111913043 C15.1705489,-0.0373043478 14.7813969,-0.0373043478 14.4313556,0.111913043 L7.58257468,2.778 C7.23253341,2.92721739 6.84338137,2.92721739 6.4933401,2.778 L1.00632335,0.309130435 C0.779480962,0.212086957 0.523305503,0.241304348 0.320907335,0.388434783 C0.119486936,0.535565217 -0.000778642337,0.77973913 -7.47975034e-06,1.03956522 L-7.47975034e-06,16.0374783 C-7.47975034e-06,16.6771304 0.365884706,17.2531304 0.922235225,17.4910435 L6.78884879,19.9953913 C7.13889007,20.1446087 7.5280421,20.1446087 7.87808338,19.9953913 L13.2000797,17.4910435" id="Stroke-1"></path>
            <line x1="7" y1="3" x2="7" y2="14" id="Stroke-3"></line>
            <path d="M17.5,10 C19.985,10 22,12.0275029 22,14.5279222 C22,16.4608419 19.312,20.1385209 18.091,21.710213 C17.949,21.8933423 17.731,22 17.5,22 C17.269,22 17.051,21.8933423 16.909,21.710213 C15.688,20.1395271 13,16.4608419 13,14.5279222 C13,12.0275029 15.015,10 17.5,10 Z" id="Stroke-15"></path>
            <line x1="15" y1="-3.90798505e-14" x2="15" y2="10.5" id="Stroke-5"></line>
        </g>
        <circle id="Oval" fill="#005EA8" cx="18.5" cy="15.5" r="1.5"></circle>
    </g>
</svg>