<?xml version="1.0" encoding="UTF-8"?>
<svg width="24px" height="24px" viewBox="0 0 24 24" version="1.1" xmlns="http://www.w3.org/2000/svg" xmlns:xlink="http://www.w3.org/1999/xlink">
    <title>usz-icon-besuchszeiten-blue</title>
    <g id="usz-icon-besuchszeiten-blue" stroke="none" stroke-width="1" fill="none" fill-rule="evenodd" stroke-linecap="round" stroke-linejoin="round">
        <g id="Group-17" transform="translate(1.000000, 1.000000)" stroke="#005EA8" stroke-width="1.5">
            <path d="M4.5,9 C6.985,9 9,6.985 9,4.5 C9,2.015 6.985,1.13686838e-13 4.5,1.13686838e-13 C2.015,1.13686838e-13 1.25055521e-12,2.015 1.25055521e-12,4.5 C1.25055521e-12,6.985 2.015,9 4.5,9 Z" id="Stroke-1"></path>
            <polyline id="Stroke-3" points="4.5 2 4.5 4.5 6.5 4.5"></polyline>
            <polyline id="Stroke-7" points="1 22 1 19 7 19"></polyline>
            <path d="M10,19 L6.38207206,19 C5.91373709,19 5.46892581,18.790694 5.16525656,18.4257784 L1.47511515,13.9996748 C0.933001394,13.3081981 0.81752154,12.2360507 1.47511515,11.6585416 C2.1316395,11.0821283 3.23444471,11.1678274 3.81932878,11.8220455 L7.11986001,15.9986221 L12.5,15.9986221" id="Stroke-9"></path>
            <path d="M20,16 C20.8650435,16 21.6004052,16.671 21.6004052,17.5 C21.6004052,18.329 20.8650435,19 20,19" id="Stroke-11"></path>
            <path d="M15,5 C16.3809524,5 17.5,3.88095238 17.5,2.5 C17.5,1.11904762 16.3809524,0 15,0 C13.6190476,0 12.5,1.11904762 12.5,2.5 C12.5,3.88095238 13.6190476,5 15,5 Z" id="Stroke-13"></path>
            <path d="M15.8,7 L14.2,7 C12.4325333,7 11,8.41368421 11,10.1578947 L11,12.5263158 C11,13.3989474 11.7157333,14.1052632 12.6,14.1052632 L12.6,20.4210526 C12.6,21.2936842 13.3157333,22 14.2,22 L15.8,22 C16.6842667,22 17.4,21.2936842 17.4,20.4210526 L17.4,14.1052632 C18.2842667,14.1052632 19,13.3989474 19,12.5263158 L19,10.1578947 C19,8.41368421 17.5674667,7 15.8,7 Z" id="Stroke-15"></path>
            <line x1="20" y1="22.1304348" x2="20" y2="19" id="Stroke-5"></line>
        </g>
    </g>
</svg>