<?xml version="1.0" encoding="UTF-8"?>
<svg width="24px" height="24px" viewBox="0 0 24 24" version="1.1" xmlns="http://www.w3.org/2000/svg" xmlns:xlink="http://www.w3.org/1999/xlink">
    <title>social-icons-instagram-white</title>
    <g id="social-icons-instagram-white" stroke="none" stroke-width="1" fill="none" fill-rule="evenodd">
        <g id="Group" transform="translate(-1.000000, -1.000000)" fill="#FFFFFF">
            <path d="M12.9971616,4.04165905 C10.5544628,4.04165905 10.2481302,4.05201295 9.28882373,4.09578494 C8.33144518,4.13944983 7.67765007,4.29150932 7.10550794,4.51386821 C6.51408614,4.74368905 6.01245762,5.05123552 5.51243575,5.5512574 C5.01237817,6.05131497 4.7048674,6.55290778 4.47501086,7.14432959 C4.25265197,7.71647172 4.10062818,8.37026683 4.05692759,9.32764538 C4.0131556,10.2869876 4.0028374,10.5932488 4.0028374,13.0359833 C4.0028374,15.4787177 4.0131556,15.7850146 4.05692759,16.7443568 C4.10062818,17.7016997 4.25265197,18.3555305 4.47501086,18.9276369 C4.7048674,19.5190587 5.01237817,20.0206872 5.51243575,20.5207091 C6.01245762,21.0207667 6.51408614,21.3282775 7.10550794,21.5581697 C7.67765007,21.7804929 8.33144518,21.9325524 9.28882373,21.976253 C10.2481302,22.0199893 10.5544628,22.0303432 12.9971616,22.0303432 C15.4398961,22.0303432 15.7461573,22.0199893 16.7054995,21.976253 C17.662878,21.9325524 18.3166731,21.7804929 18.8888153,21.5581697 C19.4802728,21.3282775 19.9818656,21.0207667 20.4818875,20.5207091 C20.981945,20.0206872 21.2894558,19.5190944 21.5193123,18.9276369 C21.7416712,18.3555305 21.8937307,17.7016997 21.9373956,16.7443568 C21.9811676,15.7850146 21.9915215,15.4787177 21.9915215,13.0359833 C21.9915215,10.5932845 21.9811676,10.2869876 21.9373956,9.32764538 C21.8937307,8.37026683 21.7416712,7.71647172 21.5193123,7.14432959 C21.2894558,6.55290778 20.981945,6.05131497 20.4818875,5.5512574 C19.9818656,5.05123552 19.4802728,4.74368905 18.8888153,4.51386821 C18.3166731,4.29150932 17.662878,4.13944983 16.7054995,4.09578494 C15.7461573,4.05201295 15.4398961,4.04165905 12.9971616,4.04165905 M12.9971616,5.66225833 C15.3987661,5.66225833 15.6832127,5.67139832 16.6316298,5.71467047 C17.5085692,5.75469364 17.9848129,5.90121915 18.3017492,6.02439484 C18.721582,6.18755799 19.0212381,6.3824612 19.3359609,6.697184 C19.6506837,7.0119425 19.8455869,7.31156289 20.0087857,7.73139561 C20.1319257,8.048332 20.2784512,8.52457561 20.3184744,9.40151508 C20.3617108,10.3499322 20.3708865,10.6344144 20.3708865,13.0359833 C20.3708865,15.4375878 20.3617108,15.7220701 20.3184744,16.6704514 C20.2784512,17.5474266 20.1319257,18.0236702 20.0087857,18.3406066 C19.8455869,18.7604036 19.6506837,19.0600597 19.3359609,19.3747825 C19.0212381,19.689541 18.721582,19.8844442 18.3017492,20.0476074 C17.9848129,20.1707473 17.5085692,20.3173086 16.6316298,20.357296 C15.6833555,20.4005682 15.3989446,20.4097439 12.9971616,20.4097439 C10.5953786,20.4097439 10.3109677,20.4005682 9.36269344,20.357296 C8.48575397,20.3173086 8.00947465,20.1707473 7.69253826,20.0476074 C7.27274124,19.8844442 6.97308515,19.689541 6.65836235,19.3747825 C6.34363955,19.0600597 6.14870064,18.7604036 5.98553749,18.3406066 C5.86239751,18.0236702 5.715872,17.5474266 5.67584882,16.6704871 C5.63257667,15.7220701 5.62343668,15.4375878 5.62343668,13.0359833 C5.62343668,10.6344144 5.63257667,10.3499322 5.67584882,9.40151508 C5.715872,8.52457561 5.86239751,8.048332 5.98553749,7.73139561 C6.14870064,7.31156289 6.34363955,7.0119425 6.65836235,6.6972197 C6.97308515,6.3824612 7.27274124,6.18755799 7.69253826,6.02439484 C8.00947465,5.90121915 8.48575397,5.75469364 9.36265773,5.71467047 C10.3111105,5.67139832 10.5955571,5.66225833 12.9971616,5.66225833" id="Fill-1"></path>
            <path d="M12.9971616,16.0341151 C11.3413591,16.0341151 9.99902973,14.6917858 9.99902973,13.0359833 C9.99902973,11.3801807 11.3413591,10.0378871 12.9971616,10.0378871 C14.6529641,10.0378871 15.9952935,11.3801807 15.9952935,13.0359833 C15.9952935,14.6917858 14.6529641,16.0341151 12.9971616,16.0341151 M12.9971616,8.41728781 C10.4463181,8.41728781 8.37843046,10.4851398 8.37843046,13.0359833 C8.37843046,15.5868624 10.4463181,17.6547144 12.9971616,17.6547144 C15.5480051,17.6547144 17.615857,15.5868624 17.615857,13.0359833 C17.615857,10.4851398 15.5480051,8.41728781 12.9971616,8.41728781" id="Fill-4"></path>
            <path d="M18.8776795,8.23480214 C18.8776795,8.83090105 18.3944738,9.31410676 17.7983749,9.31410676 C17.2022759,9.31410676 16.7190345,8.83090105 16.7190345,8.23480214 C16.7190345,7.63870323 17.2022759,7.15549751 17.7983749,7.15549751 C18.3944738,7.15549751 18.8776795,7.63870323 18.8776795,8.23480214" id="Fill-6"></path>
        </g>
    </g>
</svg>