<?xml version="1.0" encoding="UTF-8"?>
<svg width="15px" height="15px" viewBox="0 0 15 15" version="1.1" xmlns="http://www.w3.org/2000/svg" xmlns:xlink="http://www.w3.org/1999/xlink">
    <!-- Generator: Sketch 60.1 (88133) - https://sketch.com -->
    <title>textlink-icon-int</title>
    <desc>Created with Sketch.</desc>
    <g id="textlink-icon-int" stroke="none" stroke-width="1" fill="none" fill-rule="evenodd" stroke-linecap="round" stroke-linejoin="round">
        <g id="Group-2" transform="translate(0.500000, 0.500000)" stroke="#005EA8">
            <path d="M8.70410435,7.34132609 L8.76497391,7.40219565 C9.2988,7.93541304 10.1625391,7.93541304 10.6957565,7.40219565 L13.4020174,4.6935 C14.1975826,3.89184783 14.1975826,2.59836957 13.4020174,1.79732609 L12.2016696,0.597586957 C11.4012348,-0.199195652 10.1071478,-0.199195652 9.30610435,0.597586957 L6.59923478,3.30384783 C6.06601739,3.83706522 6.06601739,4.70141304 6.59923478,5.23463043 L6.66010435,5.2955" id="Stroke-1"></path>
            <path d="M5.29565217,6.65715217 L5.23417391,6.59628261 C4.70095652,6.06306522 3.83721739,6.06306522 3.304,6.59628261 L0.597130435,9.30497826 C-0.199043478,10.1060217 -0.199043478,11.4001087 0.597130435,12.2011522 L1.79686957,13.4008913 C2.59730435,14.1982826 3.892,14.1982826 4.69304348,13.4008913 L7.39930435,10.6946304 C7.65556522,10.4383696 7.79921739,10.091413 7.79921739,9.72923913 C7.79921739,9.36706522 7.65556522,9.0195 7.39930435,8.76384783 L7.33782609,8.70297826" id="Stroke-3"></path>
            <line x1="4.34456522" y1="9.65601304" x2="9.65421739" y2="4.34575217" id="Stroke-5"></line>
        </g>
    </g>
</svg>