<?xml version="1.0" encoding="UTF-8"?>
<svg width="24px" height="24px" viewBox="0 0 24 24" version="1.1" xmlns="http://www.w3.org/2000/svg" xmlns:xlink="http://www.w3.org/1999/xlink">
    <!-- Generator: Sketch 60.1 (88133) - https://sketch.com -->
    <title>social-icons-linkedin</title>
    <desc>Created with Sketch.</desc>
    <g id="social-icons-linkedin" stroke="none" stroke-width="1" fill="none" fill-rule="evenodd">
        <g id="icons/social/linkedin/color" transform="translate(-1.000000, -1.000000)" fill="#005EA8">
            <g id="Group-3" transform="translate(4.000000, 4.960000)">
                <path d="M17,15.7397333 L13.242265,15.7397333 L13.242265,10.2062643 C13.242265,8.75802074 12.655593,7.7698608 11.3625545,7.7698608 C10.374091,7.7698608 9.82450747,8.43675544 9.56825995,9.07985265 C9.47272908,9.30989447 9.48733968,9.63172637 9.48733968,9.95412489 L9.48733968,15.7397333 L5.76500727,15.7397333 C5.76500727,15.7397333 5.81333466,5.93802532 5.76500727,5.04732152 L9.48733968,5.04732152 L9.48733968,6.72504032 C9.70706069,5.99128623 10.896701,4.94419933 12.7960796,4.94419933 C15.1500727,4.94419933 17,6.48253317 17,9.79377554 L17,15.7397333 Z" id="Path"></path>
                <path d="M2.00052889,3.70956601 L1.97692715,3.70956601 C0.777733704,3.70956601 -2.21600516e-13,2.89195432 -2.21600516e-13,1.85676612 C-2.21600516e-13,0.800613528 0.800773503,1.55431223e-15 2.02413064,1.55431223e-15 C3.24580193,1.55431223e-15 3.99824805,0.798347106 4.0218498,1.8539331 C4.0218498,2.88968789 3.24580193,3.70956601 2.00052889,3.70956601 L2.00052889,3.70956601 Z" id="Path"></path>
                <polygon id="Path" points="0.42876504 15.7397333 3.74256248 15.7397333 3.74256248 5.04732152 0.42876504 5.04732152"></polygon>
            </g>
        </g>
    </g>
</svg>