<?xml version="1.0" encoding="UTF-8"?>
<svg width="24px" height="24px" viewBox="0 0 24 24" version="1.1" xmlns="http://www.w3.org/2000/svg" xmlns:xlink="http://www.w3.org/1999/xlink">
    <!-- Generator: Sketch 60.1 (88133) - https://sketch.com -->
    <title>social-icons-linkedin-white</title>
    <desc>Created with Sketch.</desc>
    <g id="social-icons-linkedin-white" stroke="none" stroke-width="1" fill="none" fill-rule="evenodd">
        <g id="icons/social/linkedin/colored" transform="translate(-1.000000, -1.000000)" fill="#FEFEFE">
            <path d="M20,19.84 L16.6843514,19.84 L16.6843514,14.9575273 C16.6843514,13.6796654 16.1666997,12.8077595 15.0257834,12.8077595 C14.1536097,12.8077595 13.6686831,13.396196 13.4425823,13.9636347 C13.3582904,14.1666128 13.3711821,14.4505821 13.3711821,14.7350514 L13.3711821,19.84 L10.0867711,19.84 C10.0867711,19.84 10.1294129,11.1914341 10.0867711,10.405519 L13.3711821,10.405519 L13.3711821,11.8858591 C13.5650536,11.238429 14.6147362,10.3145288 16.2906585,10.3145288 C18.3677112,10.3145288 20,11.6718822 20,14.5935667 L20,19.84 Z M6.76517255,9.22514648 L6.74434748,9.22514648 C5.68623562,9.22514648 5,8.5037244 5,7.59032305 C5,6.6584237 5.70656486,5.952 6.78599762,5.952 C7.86394288,5.952 8.52786593,6.65642392 8.548691,7.58782332 C8.548691,8.50172461 7.86394288,9.22514648 6.76517255,9.22514648 L6.76517255,9.22514648 Z M5.37832209,19.84 L8.30226101,19.84 L8.30226101,10.405519 L5.37832209,10.405519 L5.37832209,19.84 Z" id="Fill-2"></path>
        </g>
    </g>
</svg>