<?xml version="1.0" encoding="UTF-8"?>
<svg width="206px" height="37px" viewBox="0 0 206 37" version="1.1" xmlns="http://www.w3.org/2000/svg" xmlns:xlink="http://www.w3.org/1999/xlink">
    <!-- Generator: Sketch 60.1 (88133) - https://sketch.com -->
    <title>Artboard Copy 15</title>
    <desc>Created with Sketch.</desc>
    <g id="Artboard-Copy-15" stroke="none" stroke-width="1" fill="none" fill-rule="evenodd">
        <g id="Group-5" fill="#FFFFFF">
            <g id="Group-4" transform="translate(0.000000, 0.000000)">
                <path d="M20.3438534,1.67672746 L29.5334783,1.67672746 L29.5334783,20.4998664 C29.5334783,29.1592292 23.681377,34.6285241 14.7665841,34.6285241 C5.80605053,34.6285241 7.75266795e-05,29.1592292 7.75266795e-05,20.45388 L7.75266795e-05,1.67672746 L9.28040866,1.67672746 L9.28040866,19.8162529 C9.28040866,23.6447207 11.0635223,26.2879749 14.7665841,26.2879749 C18.469646,26.2879749 20.3438534,23.6447207 20.3438534,19.8162529 L20.3438534,1.67672746 Z" id="Fill-1"></path>
                <polygon id="Fill-3" points="63.7690273 1.66463186 90.5013892 1.66463186 90.5013892 3.8603878 76.7140446 25.4098658 90.4184357 25.4098658 90.4184357 33.5684014 62.9674014 33.5684014 62.9674014 30.7721166 76.5066607 9.64038102 63.7690273 9.64038102"></polygon>
                <path d="M32.8946475,29.164021 L39.1363205,23.8883329 C41.1516265,26.0840888 43.9596428,27.2059261 46.6308245,27.3458176 C48.458516,27.4393363 51.0831817,27.1124075 51.130473,24.8231329 C51.176989,22.90716 48.5527109,22.112638 45.3186855,21.412021 C39.4134783,20.1035329 33.7893054,17.5804617 33.9296287,10.712638 C34.0238236,4.07745153 40.069354,0.38655661 46.9118588,0.38655661 C51.130473,0.38655661 56.097995,1.55476678 59.8006692,5.71286847 L53.8016547,10.9232481 C51.6460254,9.19431254 49.161683,8.23593966 46.95915,8.23593966 C45.1779746,8.23593966 43.1161525,8.84342441 43.1161525,10.4788414 C43.0688613,12.1606312 44.3344843,12.9126447 48.5996146,13.9873363 C54.2703035,15.3425837 60.5038362,17.9077769 60.4571956,24.5425769 C60.3162216,31.8779939 54.2233999,35.382238 46.6308245,35.2423464 C42.1319513,35.1484414 36.3868368,33.7414108 32.8946475,29.164021" id="Fill-5"></path>
            </g>
            <path d="M185.133671,20.0324664 C184.297934,20.0324664 183.658339,20.6878698 183.658339,21.5206495 C183.658339,22.3534292 184.297934,22.9910563 185.133671,22.9910563 C185.969409,22.9910563 186.618307,22.3534292 186.618307,21.5206495 C186.618307,20.6878698 185.969409,20.0324664 185.133671,20.0324664" id="Fill-8"></path>
            <path d="M125.567792,20.0324664 C124.732054,20.0324664 124.092459,20.6878698 124.092459,21.5206495 C124.092459,22.3534292 124.732054,22.9910563 125.567792,22.9910563 C126.403529,22.9910563 127.052427,22.3534292 127.052427,21.5206495 C127.052427,20.6878698 126.403529,20.0324664 125.567792,20.0324664" id="Fill-10"></path>
            <path d="M169.17275,22.9209559 C169.924759,22.9209559 170.516675,22.3470915 170.516675,21.5973966 C170.516675,20.8480881 169.924759,20.2579932 169.17275,20.2579932 C168.421129,20.2579932 167.844718,20.8480881 167.844718,21.5973966 C167.844718,22.3470915 168.421129,22.9209559 169.17275,22.9209559" id="Fill-12"></path>
            <polygon id="Fill-14" points="124.421792 33.3245186 126.740615 33.3245186 126.740615 24.7381932 124.421792 24.7381932"></polygon>
            <path d="M202.134458,24.5080292 C201.191734,24.5080292 200.276143,24.8090664 199.66252,25.6592359 L199.66252,20.02068 L197.343697,20.02068 L197.343697,33.3246732 L199.66252,33.3246732 L199.66252,28.6189851 C199.66252,27.3251817 200.489342,26.67828 201.48556,26.67828 C202.543799,26.67828 203.16595,27.3603478 203.16595,28.6008224 L203.16595,33.3246732 L205.485161,33.3246732 L205.485161,27.8569241 C205.485161,25.8628902 204.090068,24.5080292 202.134458,24.5080292" id="Fill-16"></path>
            <path d="M107.785846,26.0315329 L107.083454,25.9163736 C105.589515,25.6682786 104.513833,25.3935193 104.513833,24.48036 C104.513833,23.5409227 105.50036,22.9917905 106.896615,22.9917905 C108.257208,22.9917905 109.448406,23.4435397 110.425629,24.0463871 L111.598608,22.0260753 C110.034507,21.096299 108.585921,20.7063803 106.843509,20.7063803 C104.193647,20.7063803 101.88374,22.0527397 101.88374,24.63996 C101.88374,26.8824753 103.482728,27.8485769 105.678671,28.1940549 L106.469831,28.3181024 C108.203715,28.5928617 109.110777,28.9120617 109.110777,29.7718922 C109.110777,30.7291058 108.043622,31.2697363 106.665198,31.2697363 C105.065047,31.2697363 103.59863,30.649499 102.700871,29.9314922 L101.412378,31.9251397 C102.745837,32.9967397 104.771609,33.5458719 106.656282,33.5458719 C109.332891,33.5458719 111.749785,32.2439532 111.749785,29.506021 C111.749785,27.343499 110.008148,26.3947871 107.785846,26.0315329" id="Fill-17"></path>
            <path d="M140.556955,31.3937837 C139.196362,31.3937837 138.334265,30.3391871 138.334265,29.027221 C138.334265,27.7152549 139.196362,26.6602719 140.556955,26.6602719 C141.881886,26.6602719 142.779645,27.6708142 142.779645,29.027221 C142.779645,30.3832414 141.881886,31.3937837 140.556955,31.3937837 L140.556955,31.3937837 Z M142.708708,25.6864414 C142.139662,24.9862108 141.31284,24.5081837 140.13017,24.5081837 C137.756691,24.5081837 135.961949,26.4477295 135.961949,29.027221 C135.961949,31.6063261 137.756691,33.5458719 140.13017,33.5458719 C141.31284,33.5458719 142.148578,33.0678447 142.708708,32.3768888 L142.708708,33.3248278 L144.974425,33.3248278 L144.974425,24.7385024 L142.708708,24.7385024 L142.708708,25.6864414 Z" id="Fill-18"></path>
            <path d="M192.642169,31.3937837 C191.442056,31.3937837 190.449327,30.4628481 190.449327,29.027221 C190.449327,27.6000956 191.409495,26.6602719 192.609608,26.6602719 C193.253854,26.6602719 194.085716,27.0003397 194.609796,27.5587464 L196.078927,26.0458312 C195.287767,25.0093973 193.95896,24.5081837 192.630152,24.5081837 C189.883382,24.5081837 188.085926,26.4299532 188.085926,29.027221 C188.085926,31.6329905 189.966723,33.5458719 192.713493,33.5458719 C194.153164,33.5458719 195.452899,32.9704617 196.26189,31.9340278 L194.804388,30.3786041 C194.146186,31.0966108 193.388751,31.3937837 192.642169,31.3937837" id="Fill-19"></path>
            <path d="M118.022159,31.3937837 C116.706143,31.3937837 115.808384,30.3832414 115.808384,29.027221 C115.808384,27.6708142 116.706143,26.6602719 118.022159,26.6602719 C119.391667,26.6602719 120.244849,27.7152549 120.244849,29.027221 C120.244849,30.3391871 119.391667,31.3937837 118.022159,31.3937837 M118.448943,24.5081837 C117.266274,24.5081837 116.439452,24.9862108 115.879321,25.6860549 L115.879321,24.7385024 L113.613604,24.7385024 L113.613604,36.8692617 L115.923511,36.8692617 L115.923511,32.4302176 C116.483642,33.0945092 117.301936,33.5458719 118.457859,33.5458719 C120.831726,33.5458719 122.626081,31.6063261 122.626081,29.0276075 C122.626081,26.4477295 120.831726,24.5081837 118.448943,24.5081837" id="Fill-20"></path>
            <path d="M172.870579,29.4617736 C172.870579,30.8355702 172.105778,31.3939769 171.10956,31.3939769 C170.104814,31.3939769 169.348929,30.8355702 169.348929,29.4617736 L169.348929,24.7383092 L167.030106,24.7383092 L167.030106,29.6654278 C167.030106,32.377082 168.949279,33.5460651 171.10956,33.5460651 C173.261313,33.5460651 175.180486,32.377082 175.180486,29.6654278 L175.180486,24.7383092 L172.870579,24.7383092 L172.870579,29.4617736 Z" id="Fill-21"></path>
            <path d="M174.348276,21.5974739 C174.348276,20.8481654 173.75636,20.2580705 173.003963,20.2580705 C172.251954,20.2580705 171.675931,20.8481654 171.675931,21.5974739 C171.675931,22.3467824 172.251954,22.9210332 173.003963,22.9210332 C173.75636,22.9210332 174.348276,22.3467824 174.348276,21.5974739" id="Fill-22"></path>
            <polygon id="Fill-23" points="184.058803 33.3245186 186.377626 33.3245186 186.377626 24.7381932 184.058803 24.7381932"></polygon>
            <polygon id="Fill-24" points="155.865257 23.1483376 162.023976 23.1483376 155.680743 31.8502088 155.680743 33.32448 165.524693 33.32448 165.524693 31.0951037 159.098119 31.0951037 165.524693 22.3932325 165.524693 20.9189614 155.865257 20.9189614"></polygon>
            <polygon id="Fill-25" points="134.909214 13.8282773 138.195182 5.24233831 135.750378 5.24233831 133.58467 11.433118 131.436794 5.24233831 128.912137 5.24233831 132.23338 13.8282773"></polygon>
            <polygon id="Fill-26" points="166.084242 13.8282 168.403065 13.8282 168.403065 5.24226102 166.084242 5.24226102"></polygon>
            <path d="M143.324735,7.00462373 C144.320565,7.00462373 144.987682,7.62524746 145.20088,8.72505763 L141.386568,8.72505763 C141.590851,7.66118644 142.231221,7.00462373 143.324735,7.00462373 M143.499945,14.0498237 C144.949306,14.0498237 146.151358,13.6425153 147.128969,12.7479051 L145.769539,11.2589492 C145.147775,11.7821898 144.338396,12.0836136 143.591427,12.0836136 C142.497913,12.0836136 141.626513,11.5425966 141.377652,10.3013492 L147.484041,10.3013492 C147.511175,10.1065831 147.529007,9.78776949 147.529007,9.52189831 C147.520091,6.84541017 145.823032,5.01213559 143.342566,5.01213559 C140.764416,5.01213559 138.987505,6.85429831 138.987505,9.55745085 C138.987505,12.2609898 140.859386,14.0498237 143.499945,14.0498237" id="Fill-27"></path>
            <path d="M183.050878,7.16426237 C184.375809,7.16426237 185.273568,8.17480475 185.273568,9.53082508 C185.273568,10.8872319 184.375809,11.8977742 183.050878,11.8977742 C181.690285,11.8977742 180.828188,10.8427912 180.828188,9.53082508 C180.828188,8.21924542 181.690285,7.16426237 183.050878,7.16426237 M182.624094,14.0498624 C183.806763,14.0498624 184.642501,13.5714488 185.202631,12.8804929 L185.202631,13.8284319 L187.468348,13.8284319 L187.468348,5.24210644 L185.202631,5.24210644 L185.202631,6.19043186 C184.633585,5.48981492 183.806763,5.01217424 182.624094,5.01217424 C180.250227,5.01217424 178.455872,6.95172 178.455872,9.53082508 C178.455872,12.1103166 180.250227,14.0498624 182.624094,14.0498624" id="Fill-28"></path>
            <path d="M167.230241,3.49740407 C168.065591,3.49740407 168.714877,2.85977695 168.714877,2.02699729 C168.714877,1.19421763 168.065591,0.538427797 167.230241,0.538427797 C166.394504,0.538427797 165.754521,1.19421763 165.754521,2.02699729 C165.754521,2.85977695 166.394504,3.49740407 167.230241,3.49740407" id="Fill-29"></path>
            <path d="M181.318273,3.37586847 C182.070282,3.37586847 182.662586,2.80200407 182.662586,2.05230915 C182.662586,1.30300068 182.070282,0.712905763 181.318273,0.712905763 C180.566264,0.712905763 179.990241,1.30300068 179.990241,2.05230915 C179.990241,2.80200407 180.566264,3.37586847 181.318273,3.37586847" id="Fill-30"></path>
            <path d="M185.149564,3.37586847 C185.901573,3.37586847 186.493489,2.80200407 186.493489,2.05230915 C186.493489,1.30300068 185.901573,0.712905763 185.149564,0.712905763 C184.397943,0.712905763 183.821532,1.30300068 183.821532,2.05230915 C183.821532,2.80200407 184.397943,3.37586847 185.149564,3.37586847" id="Fill-31"></path>
            <path d="M201.48525,12.1277837 C200.187065,12.1277837 199.289694,11.7734176 198.552028,11.2861159 L197.636825,13.0401702 C198.756698,13.8285092 200.293664,14.0499397 201.467418,14.0499397 C203.965328,14.0499397 205.42283,12.907621 205.42283,11.1354041 C205.42283,9.68161424 204.383197,8.84844814 202.516742,8.56480068 L201.751941,8.44964136 C200.969309,8.33448203 200.34677,8.21004814 200.34677,7.71385831 C200.34677,7.24394644 200.791386,6.93363458 201.671701,6.93363458 C202.641172,6.94252271 203.734686,7.29727525 204.418859,7.63386508 L205.200328,5.83575661 C204.054096,5.27734983 202.979189,5.02075322 201.600764,5.02075322 C199.333884,5.02075322 197.965926,6.06568881 197.965926,7.82901763 C197.965926,9.29169559 198.951678,10.1600278 200.942563,10.4351736 L201.645342,10.5325566 C202.641172,10.6743803 203.076872,10.904699 203.076872,11.321282 C203.076872,11.8267464 202.560932,12.1277837 201.48525,12.1277837" id="Fill-32"></path>
            <path d="M151.915505,6.18096407 L151.915505,5.24229966 L149.667619,5.24229966 L149.667619,13.8282386 L151.986442,13.8282386 L151.986442,9.1499878 C151.986442,7.87280136 152.724108,7.21739797 153.799791,7.21739797 C154.271153,7.21739797 154.614209,7.25952 155.121233,7.36733695 L155.550731,5.19785898 C155.231321,5.08269966 154.839811,5.01198102 154.34209,5.01198102 C153.284626,5.01198102 152.457804,5.37484881 151.915505,6.18096407" id="Fill-33"></path>
            <polygon id="Fill-34" points="124.978046 13.8282 127.296869 13.8282 127.296869 5.24226102 124.978046 5.24226102"></polygon>
            <path d="M160.111819,12.1277837 C158.813635,12.1277837 157.916264,11.7734176 157.178597,11.2861159 L156.263395,13.0401702 C157.38288,13.8285092 158.920234,14.0499397 160.094376,14.0499397 C162.591898,14.0499397 164.049399,12.907621 164.049399,11.1354041 C164.049399,9.68161424 163.009766,8.84844814 161.143699,8.56480068 L160.378511,8.44964136 C159.595879,8.33448203 158.97334,8.21004814 158.97334,7.71385831 C158.97334,7.24394644 159.417955,6.93363458 160.298271,6.93363458 C161.267742,6.94252271 162.361256,7.29727525 163.045429,7.63386508 L163.826898,5.83575661 C162.681053,5.27734983 161.605758,5.02075322 160.227334,5.02075322 C157.960454,5.02075322 156.592496,6.06568881 156.592496,7.82901763 C156.592496,9.29169559 157.578247,10.1600278 159.569132,10.4351736 L160.271912,10.5325566 C161.267742,10.6743803 161.703442,10.904699 161.703442,11.321282 C161.703442,11.8267464 161.18789,12.1277837 160.111819,12.1277837" id="Fill-35"></path>
            <path d="M119.240529,5.01201966 C118.26253,5.01201966 117.319806,5.33972136 116.706182,6.25172136 L116.706182,5.24233831 L114.44938,5.24233831 L114.44938,13.8282773 L116.768591,13.8282773 L116.768591,9.12336203 C116.768591,7.82878576 117.595413,7.18188407 118.591243,7.18188407 C119.649482,7.18188407 120.272022,7.86433831 120.272022,9.10481288 L120.272022,13.8282773 L122.590845,13.8282773 L122.590845,8.36052814 C122.590845,6.36688068 121.195752,5.01201966 119.240529,5.01201966" id="Fill-36"></path>
            <path d="M109.643967,8.75152881 C109.643967,10.7900034 108.488044,11.685 106.772379,11.685 C105.056325,11.685 103.900403,10.7900034 103.900403,8.75152881 L103.900403,1.42268136 L101.412572,1.42268136 L101.412572,8.87557627 C101.412572,12.3048508 103.606964,14.0500169 106.772379,14.0500169 C109.937018,14.0500169 112.131798,12.3048508 112.131798,8.87557627 L112.131798,1.42268136 L109.643967,1.42268136 L109.643967,8.75152881 Z" id="Fill-37"></path>
            <path d="M134.4451,31.1256325 C134.045838,31.3219444 133.567886,31.4769071 133.217078,31.4769071 C132.496855,31.4769071 131.928197,31.0039037 131.928197,29.9311444 L131.928197,26.7932461 L134.557902,26.7932461 L134.557902,24.738541 L131.928197,24.738541 L131.928197,22.1861003 L129.608986,22.1861003 L129.608986,24.738541 L128.07202,24.738541 L128.07202,26.7932461 L129.608986,26.7932461 L129.608986,30.1174088 C129.608986,32.3413749 130.702112,33.5459105 132.834871,33.5459105 C133.810157,33.5459105 134.559452,33.298202 135.205637,32.9388122 L134.4451,31.1256325 Z" id="Fill-38"></path>
            <path d="M176.647562,11.6283092 C176.248687,11.824621 175.770735,11.9795837 175.41954,11.9795837 C174.699704,11.9795837 174.130659,11.5065803 174.130659,10.433821 L174.130659,7.29592271 L176.760751,7.29592271 L176.760751,5.24121763 L174.130659,5.24121763 L174.130659,2.68877695 L171.811448,2.68877695 L171.811448,5.24121763 L170.065935,5.24121763 L170.065935,7.29592271 L171.811448,7.29592271 L171.811448,10.6200854 C171.811448,12.8440515 172.904574,14.0485871 175.037333,14.0485871 C176.012619,14.0485871 176.761914,13.8008786 177.408487,13.4414888 L176.647562,11.6283092 Z" id="Fill-39"></path>
            <path d="M195.598649,11.6283092 C195.199386,11.824621 194.721434,11.9795837 194.370626,11.9795837 C193.650403,11.9795837 193.081745,11.5065803 193.081745,10.433821 L193.081745,7.29592271 L195.71145,7.29592271 L195.71145,5.24121763 L193.081745,5.24121763 L193.081745,2.68877695 L190.762535,2.68877695 L190.762535,5.24121763 L189.22518,5.24121763 L189.22518,7.29592271 L190.762535,7.29592271 L190.762535,10.6200854 C190.762535,12.8440515 191.855661,14.0485871 193.98842,14.0485871 C194.963705,14.0485871 195.713001,13.8008786 196.359185,13.4414888 L195.598649,11.6283092 Z" id="Fill-40"></path>
            <path d="M182.582074,24.6022047 C182.32895,24.5434658 182.039388,24.5079132 181.695944,24.5079132 C180.638481,24.5079132 179.811659,24.8711675 179.269747,25.6772827 L179.269747,24.7386183 L177.021473,24.7386183 L177.021473,33.3245573 L179.340684,33.3245573 L179.340684,28.64592 C179.340684,27.3695064 180.07835,26.7137166 181.154033,26.7137166 C181.527324,26.7137166 181.947519,26.7821166 182.297551,26.893798 L182.582074,24.6022047 Z" id="Fill-41"></path>
            <polygon id="Fill-42" points="147.276657 33.3368847 149.594317 33.3368847 149.594317 20.0209119 147.276657 20.0209119"></polygon>
            <path d="M126.131992,3.49740407 C126.96773,3.49740407 127.616628,2.85977695 127.616628,2.02699729 C127.616628,1.19421763 126.96773,0.538427797 126.131992,0.538427797 C125.296254,0.538427797 124.656272,1.19421763 124.656272,2.02699729 C124.656272,2.85977695 125.296254,3.49740407 126.131992,3.49740407" id="Fill-43"></path>
        </g>
    </g>
</svg>