<?xml version="1.0" encoding="UTF-8"?>
<svg width="206px" height="37px" viewBox="0 0 206 37" version="1.1" xmlns="http://www.w3.org/2000/svg" xmlns:xlink="http://www.w3.org/1999/xlink">
    <!-- Generator: Sketch 60.1 (88133) - https://sketch.com -->
    <title>usz-logo</title>
    <desc>Created with Sketch.</desc>
    <g id="usz-logo" stroke="none" stroke-width="1" fill="none" fill-rule="evenodd">
        <g id="Group-2" transform="translate(0.000078, 0.386557)" fill="#005EA8">
            <path d="M20.3437759,1.29017085 L29.5334008,1.29017085 L29.5334008,20.1133098 C29.5334008,28.7726725 23.6812994,34.2419675 14.7665066,34.2419675 C5.80597301,34.2419675 -1.77635684e-15,28.7726725 -1.77635684e-15,20.0673234 L-1.77635684e-15,1.29017085 L9.28033114,1.29017085 L9.28033114,19.4296963 C9.28033114,23.2581641 11.0634448,25.9014183 14.7665066,25.9014183 C18.4695684,25.9014183 20.3437759,23.2581641 20.3437759,19.4296963 L20.3437759,1.29017085 Z" id="Fill-1"></path>
            <polygon id="Fill-3" points="63.7689498 1.27807525 90.5013117 1.27807525 90.5013117 3.47383119 76.713967 25.0233092 90.4183581 25.0233092 90.4183581 33.1818447 62.9673239 33.1818447 62.9673239 30.38556 76.5065832 9.25382441 63.7689498 9.25382441"></polygon>
            <path d="M32.89457,28.7774644 L39.1362429,23.5017763 C41.151549,25.6975322 43.9595653,26.8193695 46.630747,26.959261 C48.4584385,27.0527797 51.0831042,26.7258508 51.1303955,24.4365763 C51.1769115,22.5206034 48.5526334,21.7260814 45.318608,21.0254644 C39.4134008,19.7169763 33.7892279,17.1939051 33.9295512,10.3260814 C34.0237461,3.69089492 40.0692765,-1.42108547e-14 46.9117812,-1.42108547e-14 C51.1303955,-1.42108547e-14 56.0979175,1.16821017 59.8005917,5.32631186 L53.8015772,10.5366915 C51.6459479,8.80775593 49.1616055,7.84938305 46.9590725,7.84938305 C45.177897,7.84938305 43.116075,8.4568678 43.116075,10.0922847 C43.0687837,11.7740746 44.3344068,12.5260881 48.599537,13.6007797 C54.270226,14.9560271 60.5037586,17.5212203 60.4571181,24.1560203 C60.3161441,31.4914373 54.2233223,34.9956814 46.630747,34.8557898 C42.1318738,34.7618847 36.3867593,33.3548542 32.89457,28.7774644" id="Fill-5"></path>
        </g>
        <g id="Group" transform="translate(101.412378, 0.538428)" fill="#005EA8">
            <path d="M83.7212935,19.4940386 C82.8855559,19.4940386 82.2459608,20.149442 82.2459608,20.9822217 C82.2459608,21.8150014 82.8855559,22.4526285 83.7212935,22.4526285 C84.5570311,22.4526285 85.2059294,21.8150014 85.2059294,20.9822217 C85.2059294,20.149442 84.5570311,19.4940386 83.7212935,19.4940386" id="Fill-8"></path>
            <path d="M24.1554138,19.4940386 C23.3196762,19.4940386 22.6800811,20.149442 22.6800811,20.9822217 C22.6800811,21.8150014 23.3196762,22.4526285 24.1554138,22.4526285 C24.9911514,22.4526285 25.6400497,21.8150014 25.6400497,20.9822217 C25.6400497,20.149442 24.9911514,19.4940386 24.1554138,19.4940386" id="Fill-10"></path>
            <path d="M67.7603721,22.3825281 C68.5123809,22.3825281 69.1042971,21.8086637 69.1042971,21.0589688 C69.1042971,20.3096603 68.5123809,19.7195654 67.7603721,19.7195654 C67.0087509,19.7195654 66.4323401,20.3096603 66.4323401,21.0589688 C66.4323401,21.8086637 67.0087509,22.3825281 67.7603721,22.3825281" id="Fill-12"></path>
            <polygon id="Fill-14" points="23.0094145 32.7860908 25.3282374 32.7860908 25.3282374 24.1997654 23.0094145 24.1997654"></polygon>
            <path d="M100.72208,23.9696014 C99.7793558,23.9696014 98.8637657,24.2706386 98.250142,25.1208081 L98.250142,19.4822522 L95.9313191,19.4822522 L95.9313191,32.7862454 L98.250142,32.7862454 L98.250142,28.0805573 C98.250142,26.7867539 99.0769641,26.1398522 100.073182,26.1398522 C101.131421,26.1398522 101.753573,26.82192 101.753573,28.0623946 L101.753573,32.7862454 L104.072783,32.7862454 L104.072783,27.3184963 C104.072783,25.3244624 102.677691,23.9696014 100.72208,23.9696014" id="Fill-16"></path>
            <path d="M6.3734683,25.4931051 L5.67107659,25.3779458 C4.17713748,25.1298508 3.1014548,24.8550915 3.1014548,23.9419322 C3.1014548,23.0024949 4.0879818,22.4533627 5.48423729,22.4533627 C6.84483051,22.4533627 8.03602793,22.9051119 9.01325173,23.5079593 L10.1862304,21.4876475 C8.62212963,20.5578712 7.17354363,20.1679525 5.43113151,20.1679525 C2.78126962,20.1679525 0.47136221,21.5143119 0.47136221,24.1015322 C0.47136221,26.3440475 2.07034997,27.3101492 4.26629316,27.6556271 L5.05745292,27.7796746 C6.7913371,28.0544339 7.69839925,28.3736339 7.69839925,29.2334644 C7.69839925,30.190678 6.63124451,30.7313085 5.25282015,30.7313085 C3.65266949,30.7313085 2.18625235,30.1110712 1.28849341,29.3930644 L1.24344979e-14,31.3867119 C1.33345888,32.4583119 3.35923101,33.0074441 5.24390458,33.0074441 C7.92051318,33.0074441 10.3374074,31.7055254 10.3374074,28.9675932 C10.3374074,26.8050712 8.59577056,25.8563593 6.3734683,25.4931051" id="Fill-17"></path>
            <path d="M39.1445771,30.8553559 C37.7839838,30.8553559 36.9218872,29.8007593 36.9218872,28.4887932 C36.9218872,27.1768271 37.7839838,26.1218441 39.1445771,26.1218441 C40.469508,26.1218441 41.3672669,27.1323864 41.3672669,28.4887932 C41.3672669,29.8448136 40.469508,30.8553559 39.1445771,30.8553559 L39.1445771,30.8553559 Z M41.29633,25.1480136 C40.7272842,24.4477831 39.9004622,23.9697559 38.7177927,23.9697559 C36.3443134,23.9697559 34.5495708,25.9093017 34.5495708,28.4887932 C34.5495708,31.0678983 36.3443134,33.0074441 38.7177927,33.0074441 C39.9004622,33.0074441 40.7361998,32.5294169 41.29633,31.838461 L41.29633,32.7864 L43.5620472,32.7864 L43.5620472,24.2000746 L41.29633,24.2000746 L41.29633,25.1480136 Z" id="Fill-18"></path>
            <path d="M91.2297911,30.8553559 C90.0296781,30.8553559 89.036949,29.9244203 89.036949,28.4887932 C89.036949,27.0616678 89.9971169,26.1218441 91.1972299,26.1218441 C91.8414766,26.1218441 92.6733379,26.4619119 93.1974182,27.0203186 L94.6665488,25.5074034 C93.875389,24.4709695 92.5465818,23.9697559 91.2177745,23.9697559 C88.4710042,23.9697559 86.6735482,25.8915254 86.6735482,28.4887932 C86.6735482,31.0945627 88.5543454,33.0074441 91.3011157,33.0074441 C92.7407861,33.0074441 94.0405209,32.4320339 94.8495118,31.3956 L93.3920102,29.8401763 C92.7338087,30.5581831 91.976373,30.8553559 91.2297911,30.8553559" id="Fill-19"></path>
            <path d="M16.6097809,30.8553559 C15.2937655,30.8553559 14.3960066,29.8448136 14.3960066,28.4887932 C14.3960066,27.1323864 15.2937655,26.1218441 16.6097809,26.1218441 C17.9792897,26.1218441 18.8324708,27.1768271 18.8324708,28.4887932 C18.8324708,29.8007593 17.9792897,30.8553559 16.6097809,30.8553559 M17.0365653,23.9697559 C15.8538958,23.9697559 15.0270738,24.4477831 14.4669435,25.1476271 L14.4669435,24.2000746 L12.2012263,24.2000746 L12.2012263,36.3308339 L14.5111337,36.3308339 L14.5111337,31.8917898 C15.071264,32.5560814 15.8895581,33.0074441 17.0454809,33.0074441 C19.4193478,33.0074441 21.2137028,31.0678983 21.2137028,28.4891797 C21.2137028,25.9093017 19.4193478,23.9697559 17.0365653,23.9697559" id="Fill-20"></path>
            <path d="M71.4582009,28.9233458 C71.4582009,30.2971424 70.6934002,30.8555492 69.6971824,30.8555492 C68.6924366,30.8555492 67.9365515,30.2971424 67.9365515,28.9233458 L67.9365515,24.1998814 L65.6177285,24.1998814 L65.6177285,29.127 C65.6177285,31.8386542 67.5369014,33.0076373 69.6971824,33.0076373 C71.8489353,33.0076373 73.7681083,31.8386542 73.7681083,29.127 L73.7681083,24.1998814 L71.4582009,24.1998814 L71.4582009,28.9233458 Z" id="Fill-21"></path>
            <path d="M72.9358981,21.0590461 C72.9358981,20.3097376 72.343982,19.7196427 71.5915855,19.7196427 C70.8395767,19.7196427 70.2635535,20.3097376 70.2635535,21.0590461 C70.2635535,21.8083546 70.8395767,22.3826054 71.5915855,22.3826054 C72.343982,22.3826054 72.9358981,21.8083546 72.9358981,21.0590461" id="Fill-22"></path>
            <polygon id="Fill-23" points="82.6464248 32.7860908 84.9652478 32.7860908 84.9652478 24.1997654 82.6464248 24.1997654"></polygon>
            <polygon id="Fill-24" points="54.4528788 22.6099098 60.6115982 22.6099098 54.2683653 31.311781 54.2683653 32.7860522 64.1123154 32.7860522 64.1123154 30.5566759 57.6857414 30.5566759 64.1123154 21.8548047 64.1123154 20.3805336 54.4528788 20.3805336"></polygon>
            <polygon id="Fill-25" points="33.496836 13.2898495 36.7828043 4.70391051 34.3380005 4.70391051 32.1722927 10.8946902 30.024416 4.70391051 27.4997597 4.70391051 30.8210027 13.2898495"></polygon>
            <polygon id="Fill-26" points="64.6718642 13.2897722 66.9906872 13.2897722 66.9906872 4.70383322 64.6718642 4.70383322"></polygon>
            <path d="M41.912357,6.46619593 C42.9081872,6.46619593 43.5753043,7.08681966 43.7885027,8.18662983 L39.9741901,8.18662983 C40.1784728,7.12275864 40.8188432,6.46619593 41.912357,6.46619593 M42.0875673,13.5113959 C43.5369286,13.5113959 44.7389798,13.1040875 45.7165912,12.2094773 L44.3571609,10.7205214 C43.7353969,11.243762 42.9260184,11.5451858 42.1790488,11.5451858 C41.085535,11.5451858 40.2141351,11.0041688 39.9652745,9.76292136 L46.0716634,9.76292136 C46.0987977,9.56815525 46.1166288,9.24934169 46.1166288,8.98347051 C46.1077133,6.30698237 44.4106543,4.4737078 41.9301882,4.4737078 C39.3520384,4.4737078 37.575127,6.31587051 37.575127,9.01902305 C37.575127,11.722562 39.4470086,13.5113959 42.0875673,13.5113959" id="Fill-27"></path>
            <path d="M81.6385005,6.62583458 C82.9634314,6.62583458 83.8611904,7.63637695 83.8611904,8.99239729 C83.8611904,10.3488041 82.9634314,11.3593464 81.6385005,11.3593464 C80.2779073,11.3593464 79.4158106,10.3043634 79.4158106,8.99239729 C79.4158106,7.68081763 80.2779073,6.62583458 81.6385005,6.62583458 M81.2117161,13.5114346 C82.3943856,13.5114346 83.2301232,13.033021 83.7902535,12.3420651 L83.7902535,13.2900041 L86.0559707,13.2900041 L86.0559707,4.70367864 L83.7902535,4.70367864 L83.7902535,5.65200407 C83.2212076,4.95138712 82.3943856,4.47374644 81.2117161,4.47374644 C78.8378492,4.47374644 77.0434942,6.4132922 77.0434942,8.99239729 C77.0434942,11.5718888 78.8378492,13.5114346 81.2117161,13.5114346" id="Fill-28"></path>
            <path d="M65.8178636,2.95897627 C66.6532136,2.95897627 67.3024995,2.32134915 67.3024995,1.48856949 C67.3024995,0.655789831 66.6532136,-5.10702591e-15 65.8178636,-5.10702591e-15 C64.982126,-5.10702591e-15 64.3421433,0.655789831 64.3421433,1.48856949 C64.3421433,2.32134915 64.982126,2.95897627 65.8178636,2.95897627" id="Fill-29"></path>
            <path d="M79.9058955,2.83744068 C80.6579043,2.83744068 81.2502081,2.26357627 81.2502081,1.51388136 C81.2502081,0.764572881 80.6579043,0.174477966 79.9058955,0.174477966 C79.1538867,0.174477966 78.5778635,0.764572881 78.5778635,1.51388136 C78.5778635,2.26357627 79.1538867,2.83744068 79.9058955,2.83744068" id="Fill-30"></path>
            <path d="M83.7371864,2.83744068 C84.4891952,2.83744068 85.0811114,2.26357627 85.0811114,1.51388136 C85.0811114,0.764572881 84.4891952,0.174477966 83.7371864,0.174477966 C82.9855653,0.174477966 82.4091544,0.764572881 82.4091544,1.51388136 C82.4091544,2.26357627 82.9855653,2.83744068 83.7371864,2.83744068" id="Fill-31"></path>
            <path d="M100.072872,11.5893559 C98.7746875,11.5893559 97.8773162,11.2349898 97.1396499,10.7476881 L96.2244474,12.5017424 C97.3443203,13.2900814 98.8812867,13.5115119 100.055041,13.5115119 C102.55295,13.5115119 104.010452,12.3691932 104.010452,10.5969763 C104.010452,9.14318644 102.970819,8.31002034 101.104364,8.02637288 L100.339564,7.91121356 C99.5569317,7.79605424 98.9343925,7.67162034 98.9343925,7.17543051 C98.9343925,6.70551864 99.379008,6.39520678 100.259323,6.39520678 C101.228795,6.40409492 102.322308,6.75884746 103.006481,7.09543729 L103.78795,5.29732881 C102.641718,4.73892203 101.566811,4.48232542 100.188387,4.48232542 C97.9215064,4.48232542 96.5535482,5.52726102 96.5535482,7.29058983 C96.5535482,8.7532678 97.5392999,9.6216 99.530185,9.89674576 L100.232964,9.99412881 C101.228795,10.1359525 101.664495,10.3662712 101.664495,10.7828542 C101.664495,11.2883186 101.148554,11.5893559 100.072872,11.5893559" id="Fill-32"></path>
            <path d="M50.5031271,5.64253627 L50.5031271,4.70387186 L48.2552411,4.70387186 L48.2552411,13.2898108 L50.574064,13.2898108 L50.574064,8.61156 C50.574064,7.33437356 51.3117304,6.67897017 52.3874131,6.67897017 C52.8587753,6.67897017 53.2018308,6.7210922 53.7088553,6.82890915 L54.1383531,4.65943119 C53.8189432,4.54427186 53.4274335,4.47355322 52.9297122,4.47355322 C51.8722483,4.47355322 51.0454262,4.83642102 50.5031271,5.64253627" id="Fill-33"></path>
            <polygon id="Fill-34" points="23.5656684 13.2897722 25.8844914 13.2897722 25.8844914 4.70383322 23.5656684 4.70383322"></polygon>
            <path d="M58.6994415,11.5893559 C57.4012572,11.5893559 56.5038859,11.2349898 55.7662196,10.7476881 L54.8510171,12.5017424 C55.9705024,13.2900814 57.5078564,13.5115119 58.681998,13.5115119 C61.1795199,13.5115119 62.6370215,12.3691932 62.6370215,10.5969763 C62.6370215,9.14318644 61.5973887,8.31002034 59.7313216,8.02637288 L58.9661332,7.91121356 C58.1835014,7.79605424 57.5609622,7.67162034 57.5609622,7.17543051 C57.5609622,6.70551864 58.0055777,6.39520678 58.8858931,6.39520678 C59.8553642,6.40409492 60.9488781,6.75884746 61.633051,7.09543729 L62.4145199,5.29732881 C61.2686756,4.73892203 60.1933806,4.48232542 58.8149562,4.48232542 C56.5480761,4.48232542 55.1801179,5.52726102 55.1801179,7.29058983 C55.1801179,8.7532678 56.1658696,9.6216 58.1567547,9.89674576 L58.8595341,9.99412881 C59.8553642,10.1359525 60.2910642,10.3662712 60.2910642,10.7828542 C60.2910642,11.2883186 59.7755118,11.5893559 58.6994415,11.5893559" id="Fill-35"></path>
            <path d="M17.8281514,4.47359186 C16.8501524,4.47359186 15.907428,4.80129356 15.2938043,5.71329356 L15.2938043,4.70391051 L13.0370027,4.70391051 L13.0370027,13.2898495 L15.3562133,13.2898495 L15.3562133,8.58493424 C15.3562133,7.29035797 16.1830353,6.64345627 17.1788655,6.64345627 C18.2371047,6.64345627 18.8596439,7.32591051 18.8596439,8.56638508 L18.8596439,13.2898495 L21.1784669,13.2898495 L21.1784669,7.82210034 C21.1784669,5.82845288 19.7833743,4.47359186 17.8281514,4.47359186" id="Fill-36"></path>
            <path d="M8.23158898,8.21310102 C8.23158898,10.2515756 7.0756662,11.1465722 5.36000078,11.1465722 C3.64394774,11.1465722 2.48802495,10.2515756 2.48802495,8.21310102 L2.48802495,0.884253559 L0.000193816699,0.884253559 L0.000193816699,8.33714847 C0.000193816699,11.7664231 2.19458647,13.5115892 5.36000078,13.5115892 C8.52463983,13.5115892 10.7194201,11.7664231 10.7194201,8.33714847 L10.7194201,0.884253559 L8.23158898,0.884253559 L8.23158898,8.21310102 Z" id="Fill-37"></path>
            <path d="M33.0327225,30.5872047 C32.6334601,30.7835166 32.1555082,30.9384793 31.8046999,30.9384793 C31.0844771,30.9384793 30.5158189,30.4654759 30.5158189,29.3927166 L30.5158189,26.2548183 L33.1455239,26.2548183 L33.1455239,24.2001132 L30.5158189,24.2001132 L30.5158189,21.6476725 L28.1966083,21.6476725 L28.1966083,24.2001132 L26.6596419,24.2001132 L26.6596419,26.2548183 L28.1966083,26.2548183 L28.1966083,29.578981 C28.1966083,31.8029471 29.2897345,33.0074827 31.4224934,33.0074827 C32.397779,33.0074827 33.1470744,32.7597742 33.7932593,32.4003844 L33.0327225,30.5872047 Z" id="Fill-38"></path>
            <path d="M75.2351844,11.0898814 C74.8363096,11.2861932 74.3583577,11.4411559 74.0071618,11.4411559 C73.2873266,11.4411559 72.7182808,10.9681525 72.7182808,9.89539322 L72.7182808,6.75749492 L75.3483734,6.75749492 L75.3483734,4.70278983 L72.7182808,4.70278983 L72.7182808,2.15034915 L70.3990702,2.15034915 L70.3990702,4.70278983 L68.653557,4.70278983 L68.653557,6.75749492 L70.3990702,6.75749492 L70.3990702,10.0816576 C70.3990702,12.3056237 71.4921963,13.5101593 73.6249553,13.5101593 C74.6002409,13.5101593 75.3495363,13.2624508 75.9961088,12.903061 L75.2351844,11.0898814 Z" id="Fill-39"></path>
            <path d="M94.186271,11.0898814 C93.7870086,11.2861932 93.3090567,11.4411559 92.9582484,11.4411559 C92.2380256,11.4411559 91.6693674,10.9681525 91.6693674,9.89539322 L91.6693674,6.75749492 L94.2990723,6.75749492 L94.2990723,4.70278983 L91.6693674,4.70278983 L91.6693674,2.15034915 L89.3501568,2.15034915 L89.3501568,4.70278983 L87.8128027,4.70278983 L87.8128027,6.75749492 L89.3501568,6.75749492 L89.3501568,10.0816576 C89.3501568,12.3056237 90.443283,13.5101593 92.5760419,13.5101593 C93.5513275,13.5101593 94.3006229,13.2624508 94.9468078,12.903061 L94.186271,11.0898814 Z" id="Fill-40"></path>
            <path d="M81.1696966,24.0637769 C80.916572,24.005038 80.6270099,23.9694854 80.2835667,23.9694854 C79.2261028,23.9694854 78.3992808,24.3327397 77.8573693,25.1388549 L77.8573693,24.2001905 L75.6090956,24.2001905 L75.6090956,32.7861295 L77.9283062,32.7861295 L77.9283062,28.1074922 C77.9283062,26.8310786 78.6659725,26.1752888 79.7416552,26.1752888 C80.1149462,26.1752888 80.5351408,26.2436888 80.8851737,26.3553702 L81.1696966,24.0637769 Z" id="Fill-41"></path>
            <polygon id="Fill-42" points="45.8642795 32.7984569 48.1819396 32.7984569 48.1819396 19.4824841 45.8642795 19.4824841"></polygon>
            <path d="M24.7196142,2.95897627 C25.5553519,2.95897627 26.2042502,2.32134915 26.2042502,1.48856949 C26.2042502,0.655789831 25.5553519,-5.10702591e-15 24.7196142,-5.10702591e-15 C23.8838766,-5.10702591e-15 23.2438939,0.655789831 23.2438939,1.48856949 C23.2438939,2.32134915 23.8838766,2.95897627 24.7196142,2.95897627" id="Fill-43"></path>
        </g>
    </g>
</svg>