<?xml version="1.0" encoding="UTF-8"?>
<svg width="400px" height="260px" viewBox="0 0 400 260" version="1.1" xmlns="http://www.w3.org/2000/svg" xmlns:xlink="http://www.w3.org/1999/xlink">
    <title>Picto-No-Results-Found</title>
    <g id="02---Allgemeine-Seiten" stroke="none" stroke-width="1" fill="none" fill-rule="evenodd">
        <g id="2-1-1-2-1-USZ-Krankheiten-Therapien-No-Results" transform="translate(-930.000000, -800.000000)">
            <g id="Picto-No-Results-Found" transform="translate(930.000000, 800.000000)">
                <rect id="Rectangle" x="0" y="0" width="400" height="260"></rect>
                <g id="Group-4" transform="translate(86.000000, 35.000000)">
                    <path d="M129.122355,110.203012 C131.240995,111.742487 133.471495,113.058547 135.781384,114.151192 L121.671,189.3692 L14.12,169.1942 L15.46,162.0462 L115.863,180.8812 Z" id="Combined-Shape" fill="#BADFFF"></path>
                    <path d="M124.3358,26.7582 L144.0808,30.4622 L143.080468,35.7945732 M129.130708,110.155229 L115.8628,180.8812 L8.3128,160.7052" id="Shape" stroke="#005EA8" stroke-width="1.5" stroke-linecap="round" stroke-linejoin="round"></path>
                    <path d="M5.08,107.266 L17.242,-1.42108547e-14 L125.972,12.328 L121.716244,49.8618203 M116.566108,95.283663 L111.499293,139.942395 M84.6480108,161.653663 L-1.20792265e-13,152.068 L2.42,130.72" id="Shape" stroke="#005EA8" stroke-width="1.5" stroke-linecap="round" stroke-linejoin="round"></path>
                    <path d="M112.397423,138.796501 C112.203089,139.657367 111.665689,140.039332 110.785222,139.942395 C105.623178,139.374068 98.2134445,138.521578 88.5560224,137.384925 C87.9580224,137.316925 87.4170224,137.746925 87.3500224,138.345925 C86.148112,148.383802 85.2439013,155.888433 84.6373901,160.859818 C84.5378546,161.67568 84.0590847,162.138123 83.2010803,162.247147 C84.0090625,162.344226 84.5464161,162.403532 84.8131409,162.425064 C85.2132281,162.457362 85.7646869,162.176664 85.9603867,161.968538 C97.1627197,153.098629 105.649458,146.350793 111.4206,141.72503 C111.717181,141.487311 112.06185,141.108724 112.171105,140.484418 C112.243942,140.068214 112.319381,139.505575 112.397423,138.796501 Z" id="Fill-5" fill="#28A0FF"></path>
                    <path d="M183.2557,46.747 C199.5917,63.083 199.5917,89.57 183.2557,105.907 C166.9197,122.243 140.4327,122.243 124.0957,105.907 C107.7597,89.57 107.7597,63.083 124.0957,46.747 C140.4327,30.411 166.9197,30.411 183.2557,46.747 Z" id="Stroke-9" stroke="#005EA8" stroke-width="1.5" stroke-linecap="round" stroke-linejoin="round"></path>
                    <path d="M178.6478,51.3554 C192.4388,65.1464 192.4388,87.5064 178.6478,101.2984 C164.8558,115.0894 142.4958,115.0894 128.7048,101.2984 C114.9128,87.5064 114.9128,65.1464 128.7048,51.3554 C142.4958,37.5634 164.8558,37.5634 178.6478,51.3554" id="Fill-11" fill="#28A0FF"></path>
                    <path d="M226.348,138.3998 L217.572,147.1758 C216.04,148.7078 213.557,148.7078 212.026,147.1758 L184.674,119.8248 C183.196,118.3468 183.196,115.9498 184.674,114.4718 L193.833,105.3138 C195.207,103.9398 197.434,103.9398 198.808,105.3138 L226.348,132.8538 C227.88,134.3848 227.88,136.8688 226.348,138.3998 Z" id="Stroke-13" stroke="#005EA8" stroke-width="1.5" stroke-linecap="round" stroke-linejoin="round"></path>
                    <line x1="218.8802" y1="134.5678" x2="209.1492" y2="144.2988" id="Stroke-15" stroke="#005EA8" stroke-width="1.5" stroke-linecap="round" stroke-linejoin="round"></line>
                    <line x1="187.4989" y1="101.0639" x2="192.1199" y2="105.6849" id="Stroke-17" stroke="#005EA8" stroke-width="1.5" stroke-linecap="round" stroke-linejoin="round"></line>
                    <line x1="180.3744" y1="108.9516" x2="185.1314" y2="113.7086" id="Stroke-19" stroke="#005EA8" stroke-width="1.5" stroke-linecap="round" stroke-linejoin="round"></line>
                    <path d="M149.6547,87.7109 C149.6547,85.5109 151.4757,83.6909 153.6757,83.6909 C155.8767,83.6909 157.6957,85.5109 157.6957,87.7109 C157.6957,89.9129 155.8767,91.7319 153.6757,91.7319 C151.4757,91.7319 149.6547,89.9129 149.6547,87.7109 M157.0617,69.9799 C157.0617,68.4979 156.0887,67.5239 153.9287,67.5239 C151.6017,67.5239 150.2057,69.0899 149.3597,71.0789 L143.5187,67.7359 C145.3817,63.3769 149.4857,60.9209 154.1847,60.9209 C159.0087,60.9209 163.8337,63.8849 163.8337,69.3869 C163.8337,75.6929 157.0617,77.6399 157.0617,80.5589 L150.2907,80.5589 C150.2907,75.6079 157.0617,73.7029 157.0617,69.9799" id="Fill-21" fill="#FFFFFF"></path>
                </g>
            </g>
        </g>
    </g>
</svg>