<?xml version="1.0" encoding="UTF-8"?>
<svg width="24px" height="24px" viewBox="0 0 24 24" version="1.1" xmlns="http://www.w3.org/2000/svg" xmlns:xlink="http://www.w3.org/1999/xlink">
    <!-- Generator: Sketch 60.1 (88133) - https://sketch.com -->
    <title>usz-icon-phone-blue</title>
    <desc>Created with Sketch.</desc>
    <g id="usz-icon-phone-blue" stroke="none" stroke-width="1" fill="none" fill-rule="evenodd" stroke-linecap="round" stroke-linejoin="round">
        <path d="M14.4318867,20.3042985 L14.4414869,20.3098986 C16.1919171,21.4243178 18.4815566,21.1731135 19.9487819,19.7058882 L20.5679925,19.0866775 C21.1440025,18.5098676 21.1440025,17.5754515 20.5679925,16.9994415 L17.9591475,14.3921965 C17.3823376,13.8161866 16.4487215,13.8161866 15.8719115,14.3921965 C15.5959068,14.6690013 15.2199003,14.824204 14.8286935,14.824204 C14.4374868,14.824204 14.0622803,14.6690013 13.7854755,14.3921965 L9.61100352,10.2169245 C9.03499358,9.64011455 9.03499358,8.70569843 9.61100352,8.1296885 C9.8878083,7.85288372 10.043811,7.47767725 10.043811,7.0864705 C10.043811,6.69526375 9.8878083,6.32005728 9.61100352,6.0432525 L7.00295853,3.43200745 C6.42694859,2.85599752 5.49253247,2.85599752 4.91572252,3.43200745 L4.29651184,4.05121814 C2.83008654,5.51844345 2.57808219,7.80728293 3.6917014,9.55851315 L3.69810151,9.56811331 C6.55735084,13.8001863 10.2006137,17.4442492 14.4318867,20.3042985 Z" id="Stroke-1" stroke="#005EA8" stroke-width="1.5"></path>
    </g>
</svg>