<?xml version="1.0" encoding="UTF-8"?>
<svg width="42px" height="42px" viewBox="0 0 42 42" version="1.1" xmlns="http://www.w3.org/2000/svg" xmlns:xlink="http://www.w3.org/1999/xlink">
    <!-- Generator: Sketch 60.1 (88133) - https://sketch.com -->
    <title>map-pin-active</title>
    <desc>Created with Sketch.</desc>
    <g id="map-pin-active" stroke="none" stroke-width="1" fill="none" fill-rule="evenodd" stroke-linecap="round" stroke-linejoin="round">
        <path d="M21,1 C28.1794667,1 34,6.8188 34,14 C34,19.9054667 25.2050667,34.7133333 22.0833333,39.4193333 C21.8424,39.7816 21.4350667,40 21,40 C20.5649333,40 20.1576,39.7816 19.9166667,39.4193333 C16.7949333,34.7133333 8,19.9054667 8,14 C8,6.8188 13.8188,1 21,1 Z M21,7 C17.1341333,7 14,10.1341333 14,14 C14,17.8658667 17.1341333,21 21,21 C24.8658667,21 28,17.8658667 28,14 C28,10.1341333 24.8658667,7 21,7 Z" id="Combined-Shape" stroke="#005EA8" stroke-width="2.5"></path>
    </g>
</svg>