<?xml version="1.0" encoding="UTF-8"?>
<svg width="24px" height="24px" viewBox="0 0 24 24" version="1.1" xmlns="http://www.w3.org/2000/svg" xmlns:xlink="http://www.w3.org/1999/xlink">
    <!-- Generator: Sketch 60.1 (88133) - https://sketch.com -->
    <title>social-icons-twitter-white</title>
    <desc>Created with Sketch.</desc>
    <g id="social-icons-twitter-white" stroke="none" stroke-width="1" fill="none" fill-rule="evenodd">
        <g id="icons/social/twitter/colored" transform="translate(-1.000000, -1.000000)" fill="#FFFFFF">
            <path d="M23,6.9200442 C22.3109071,7.22488398 21.7301729,7.23496133 21.1138834,6.93348066 C21.9087952,6.46152486 21.9451969,6.13065193 22.2321779,5.23880663 C21.4889057,5.67633149 20.6652112,5.99376796 19.7890305,6.16592265 C19.0880859,5.42439779 18.0874621,4.96 16.981866,4.96 C14.8570219,4.96 13.1351363,6.66979006 13.1351363,8.7759558 C13.1351363,9.07575691 13.1689984,9.36716022 13.2341829,9.64596685 C10.0367582,9.48724862 7.20250401,7.9680884 5.30538228,5.65869613 C4.97438068,6.22218785 4.78390661,6.87805525 4.78390661,7.57759116 C4.78390661,8.90192265 5.4636874,10.0692155 6.49563358,10.7536354 C5.86495277,10.7334807 5.27236678,10.5621657 4.75343076,10.2766409 C4.75258421,10.2925967 4.75258421,10.3077127 4.75258421,10.3245083 C4.75258421,12.1737017 6.07913028,13.7155359 7.83911068,14.0665635 C7.27530743,14.2185635 6.68102834,14.2420773 6.10114062,14.1320663 C6.59129389,15.6478674 8.01180716,16.751337 9.69475138,16.7824088 C8.04905543,18.062232 6.00801996,18.5954917 4,18.3620331 C5.7024149,19.4445083 7.72397968,20.0760221 9.89623062,20.0760221 C16.9725539,20.0760221 20.8404473,14.2613923 20.8404473,9.21851934 C20.8404473,9.05308287 20.8379077,8.88932597 20.8302887,8.72472928 C21.5811798,8.18727072 22.4844502,7.68592265 23,6.9200442 Z" id="Stroke-1"></path>
        </g>
    </g>
</svg>