<?xml version="1.0" encoding="UTF-8"?>
<svg width="24px" height="24px" viewBox="0 0 24 24" version="1.1" xmlns="http://www.w3.org/2000/svg" xmlns:xlink="http://www.w3.org/1999/xlink">
    <!-- Generator: Sketch 60.1 (88133) - https://sketch.com -->
    <title>social-icons-xing-white</title>
    <desc>Created with Sketch.</desc>
    <g id="social-icons-xing-white" stroke="none" stroke-width="1" fill="none" fill-rule="evenodd">
        <g id="icons/social/xing/colored" transform="translate(-1.000000, -1.000000)" fill="#FFFFFF">
            <g id="Group" transform="translate(6.000000, 3.968000)">
                <path d="M11.5055455,0.676228364 C11.1646364,0.676228364 10.9600909,0.879137455 10.8237273,1.14968291 C10.8237273,1.14968291 5.57372727,10.4158647 5.36918182,10.6864102 L8.84713636,16.9772684 C8.98281818,17.1795011 9.18804545,17.4500465 9.52895455,17.4500465 L11.9828182,17.4500465 C12.1191818,17.4500465 12.2562273,17.3824102 12.3237273,17.3154502 C12.3919091,17.1795011 12.3919091,17.0442284 12.3237273,16.9089556 L8.91463636,10.6864102 L14.3016818,1.21731927 C14.3691818,1.08204655 14.3691818,0.946773818 14.3016818,0.811501091 C14.2328182,0.743864727 14.0964545,0.676228364 13.9607727,0.676228364 L11.5055455,0.676228364 Z" id="Fill-1"></path>
                <path d="M1.27827273,3.99068073 C1.14190909,3.99068073 1.00622727,4.05831709 0.937363636,4.12595345 C0.869181818,4.26122618 0.869181818,4.39649891 0.937363636,4.53177164 L2.57372727,7.37249891 L0.051,11.9041353 C-0.0165,12.039408 -0.0165,12.1746807 0.051,12.3099535 C0.119181818,12.3775898 0.255545455,12.4452262 0.391909091,12.4452262 L2.77827273,12.4452262 C3.11918182,12.4452262 3.32372727,12.1746807 3.46009091,11.9717716 C3.46009091,11.9717716 5.98281818,7.50777164 6.11986364,7.37249891 L4.41531818,4.46413527 C4.27827273,4.26122618 4.07440909,3.99068073 3.7335,3.99068073 L1.27827273,3.99068073 Z" id="Fill-4"></path>
            </g>
        </g>
    </g>
</svg>