<?xml version="1.0" encoding="UTF-8"?>
<svg width="24px" height="24px" viewBox="0 0 24 24" version="1.1" xmlns="http://www.w3.org/2000/svg" xmlns:xlink="http://www.w3.org/1999/xlink">
    <!-- Generator: Sketch 60.1 (88133) - https://sketch.com -->
    <title>social-icons-xing</title>
    <desc>Created with Sketch.</desc>
    <g id="social-icons-xing" stroke="none" stroke-width="1" fill="none" fill-rule="evenodd">
        <g id="icons/social/xing/color" transform="translate(-1.000000, -1.000000)" fill="#005EA8">
            <g id="Group-3" transform="translate(4.000375, 2.660228)">
                <path d="M13.8062045,-1.77635684e-15 C13.3971136,-1.77635684e-15 13.1516591,0.243490909 12.9880227,0.568145455 C12.9880227,0.568145455 6.68802273,11.6875636 6.44256818,12.0122182 L10.6161136,19.561248 C10.7789318,19.8039273 11.0252045,20.1285818 11.4342955,20.1285818 L14.3789318,20.1285818 C14.5425682,20.1285818 14.7070227,20.0474182 14.7880227,19.9670662 C14.8698409,19.8039273 14.8698409,19.6416 14.7880227,19.4792727 L10.6971136,12.0122182 L17.1615682,0.649309091 C17.2425682,0.486981818 17.2425682,0.324654545 17.1615682,0.162327273 C17.0789318,0.0811636364 16.9152955,-1.77635684e-15 16.7524773,-1.77635684e-15 L13.8062045,-1.77635684e-15 Z" id="Fill-1"></path>
                <path d="M1.53347727,3.97734284 C1.36984091,3.97734284 1.20702273,4.05850647 1.12438636,4.13967011 C1.04256818,4.30199738 1.04256818,4.46432465 1.12438636,4.62665193 L3.08802273,8.03552465 L0.06075,13.4734883 C-0.02025,13.6358156 -0.02025,13.7981428 0.06075,13.9604701 C0.142568182,14.0416337 0.306204545,14.1227974 0.469840909,14.1227974 L3.33347727,14.1227974 C3.74256818,14.1227974 3.98802273,13.7981428 4.15165909,13.5546519 C4.15165909,13.5546519 7.17893182,8.19785193 7.34338636,8.03552465 L5.29793182,4.54548829 C5.13347727,4.30199738 4.88884091,3.97734284 4.47975,3.97734284 L1.53347727,3.97734284 Z" id="Fill-4"></path>
            </g>
        </g>
    </g>
</svg>