<?xml version="1.0" encoding="UTF-8"?>
<svg width="24px" height="24px" viewBox="0 0 24 24" version="1.1" xmlns="http://www.w3.org/2000/svg" xmlns:xlink="http://www.w3.org/1999/xlink">
    <title>social-icons-youtube-white</title>
    <g id="social-icons-youtube-white" stroke="none" stroke-width="1" fill="none" fill-rule="evenodd">
        <g id="Combined-Shape" transform="translate(-1.000000, -1.000000)" fill="#FFFFFF">
            <path d="M13.0379575,4.99894374 C13.0510182,4.99896405 13.0672119,4.99899452 13.0864065,4.99904022 L13.4523231,5.00064493 C15.0136154,5.01010052 20.1447272,5.07088644 21.5933717,5.46165311 C22.5401217,5.71627811 23.2854967,6.46652811 23.5384967,7.41927811 C23.9695123,9.03810624 23.9964508,12.3058723 23.9981344,12.7080196 L23.9981344,12.7897853 C23.9964508,13.1919197 23.9695123,16.4595906 23.5384967,18.0786531 C23.2854967,19.0312781 22.5401217,19.7815281 21.5933717,20.0362781 C20.9452939,20.2110476 19.5602126,20.319793 18.087466,20.3874568 L17.5650903,20.409673 C15.7314366,20.4817435 13.8805814,20.4956032 13.2365267,20.4982685 L12.7599665,20.4982685 C11.5331942,20.4931917 5.92799667,20.4475003 4.40299667,20.0362781 C3.45637167,19.7815281 2.71087167,19.0312781 2.45787167,18.0786531 C2.04133651,16.5135594 2.00228634,13.4079327 1.99862539,12.8393834 L1.99862539,12.65842 C2.00228634,12.0898534 2.04133651,8.9841453 2.45787167,7.41927811 C2.71087167,6.46652811 3.45637167,5.71627811 4.40299667,5.46165311 C5.08924667,5.27655311 6.60173667,5.16549311 8.16967467,5.09885711 L8.69331697,5.07824982 C10.2640608,5.02112019 11.8046091,5.00512389 12.5441698,5.00064493 L12.9100868,4.99904022 C12.9292814,4.99899452 12.9454751,4.99896405 12.9585358,4.99894374 Z M10.7482092,9.47779061 L10.7482092,16.0200406 L16.4982092,12.7490406 L10.7482092,9.47779061 Z"></path>
        </g>
    </g>
</svg>