<?xml version="1.0" encoding="UTF-8"?>
<svg width="24px" height="24px" viewBox="0 0 24 24" version="1.1" xmlns="http://www.w3.org/2000/svg" xmlns:xlink="http://www.w3.org/1999/xlink">
    <title>usz-icon-zuweiser-blue</title>
    <g id="usz-icon-zuweiser-blue" stroke="none" stroke-width="1" fill="none" fill-rule="evenodd" stroke-linecap="round" stroke-linejoin="round">
        <g id="Group-14" transform="translate(3.000000, 1.000000)" stroke="#005EA8" stroke-width="1.5">
            <path d="M1.636,0.00135249995 C0.77,-0.0338431721 0.039,0.622165048 0,1.46783883 L0,20.5321612 C0.039,21.377835 0.77,22.0338432 1.636,21.9986475 L16.364,21.9986475 C17.229,22.0338432 17.96,21.377835 18,20.5321612 L18,5.00793684 C17.996,4.61198553 17.823,4.23558737 17.521,3.97161983 L13.57,0.430544167 C13.252,0.151911764 12.84,-0.00158047272 12.413,0.00135249995 L1.636,0.00135249995 Z" id="Stroke-1"></path>
            <path d="M13.5,10.75 C13.5,10.336 13.164,10 12.75,10 L10.5,10 L10.5,7.75 C10.5,7.336 10.164,7 9.75,7 L8.25,7 C7.836,7 7.5,7.336 7.5,7.75 L7.5,10 L5.25,10 C4.836,10 4.5,10.336 4.5,10.75 L4.5,12.25 C4.5,12.664 4.836,13 5.25,13 L7.5,13 L7.5,15.25 C7.5,15.664 7.836,16 8.25,16 L9.75,16 C10.164,16 10.5,15.664 10.5,15.25 L10.5,13 L12.75,13 C13.164,13 13.5,12.664 13.5,12.25 L13.5,10.75 Z" id="Stroke-3"></path>
            <path d="M12.9998,0.000883408678 L12.9998,4.28688341 C12.9998,5.23288341 13.7678,6.00088341 14.7138,6.00088341 L15.9998,6.00088341" id="Stroke-5"></path>
        </g>
    </g>
</svg>