<?xml version="1.0" encoding="UTF-8"?>
<svg width="26px" height="26px" viewBox="0 0 26 26" version="1.1" xmlns="http://www.w3.org/2000/svg" xmlns:xlink="http://www.w3.org/1999/xlink">
    <title>icons/social/podcast/neg</title>
    <g id="icons/social/podcast/neg" stroke="none" stroke-width="1" fill="none" fill-rule="evenodd">
        <g id="Group-5" transform="translate(2.000000, 3.000000)">
            <path d="M19.4615639,10.7683887 L18.6153556,10.7683887 C18.3255234,10.4414082 17.9153835,10.2460496 17.4787495,10.2269097 C17.0422097,10.2076756 16.6166071,10.3664516 16.299055,10.6668437 C15.9816916,10.9673302 15.7997215,11.3835986 15.7948187,11.8206098 L15.7948187,18.4378167 C15.7997215,18.8747336 15.9816916,19.2910021 16.299055,19.5914885 C16.6166071,19.8916921 17.0422097,20.0504681 17.4787495,20.0314225 C17.9153835,20.0122826 18.3255234,19.8167355 18.6153556,19.4897549 L19.4615639,19.4897549 C20.1348533,19.4897549 20.7806116,19.2223626 21.2564682,18.7462231 C21.7326076,18.2702722 22,17.6246083 22,16.9513188 L22,13.307202 C21.9994343,12.7713801 21.8294384,12.249701 21.514432,11.8166498 C21.1992372,11.38341 20.7552489,11.0609552 20.2456383,10.895485 L20.2456383,9.25124814 C20.2456383,6.79757425 19.2709195,4.44431394 17.5360748,2.70956348 C15.8011358,0.974718745 13.4478754,0 10.9943901,0 C8.54081052,0 6.18773877,0.974718745 4.45279975,2.70956348 C2.71767216,4.44450251 1.74295341,6.79776282 1.74295341,9.25124814 L1.74295341,10.8955792 L1.74295341,10.8953907 C1.23560561,11.0628409 0.794068766,11.3861443 0.481042433,11.8191012 C0.1680161,12.2521524 0,12.7727944 0,13.3071077 L0,16.9513188 C0,17.624514 0.267392532,18.2702722 0.743531985,18.7462231 C1.21938858,19.2223626 1.86514682,19.4897549 2.53843629,19.4897549 L3.38464453,19.4897549 C3.67447674,19.8167355 4.08461667,20.0122826 4.52125069,20.0313282 C4.95779042,20.0504681 5.3833931,19.8916921 5.70094511,19.5913942 C6.01830856,19.2910021 6.20027868,18.8747336 6.20518151,18.4377225 L6.20518151,11.8205155 C6.20027868,11.3835986 6.01830856,10.9672359 5.70094511,10.6668437 C5.3833931,10.3663573 4.95779042,10.2075813 4.52125069,10.2269097 C4.08461667,10.2459553 3.67447674,10.4413139 3.38464453,10.7683887 L2.53843629,10.7683887 L2.3184693,10.7683887 L2.3184693,9.25105957 C2.3184693,6.94692176 3.23369418,4.73735184 4.86284539,3.10829492 C6.49209088,1.47923799 8.70175508,0.563918825 11.0055158,0.563918825 C13.309465,0.563918825 15.5190349,1.47923799 17.1482804,3.10829492 C18.7775259,4.73754041 19.6928451,6.94720461 19.6928451,9.25105957 L19.6928451,10.7797972 C19.6137399,10.7740458 19.5403862,10.7683887 19.4614696,10.7683887 L19.4615639,10.7683887 Z M3.54257197,11.8206098 C3.54257197,11.444601 3.74311625,11.0973492 4.06849393,10.9094391 C4.39406017,10.7215291 4.79505444,10.7215291 5.12071497,10.9094391 C5.44609265,11.0973492 5.64654264,11.444601 5.64654264,11.8206098 L5.64654264,18.4378167 C5.64654264,18.8135426 5.44609265,19.160983 5.12071497,19.3489874 C4.79505444,19.5368032 4.39415445,19.5368032 4.06849393,19.3489874 C3.74311625,19.1610773 3.54257197,18.8135426 3.54257197,18.4378167 L3.54257197,11.8206098 Z M3.05464689,11.3326847 L3.05445832,11.3326847 C3.00429868,11.490235 2.97855886,11.654951 2.97837029,11.8206098 L2.97837029,18.4378167 C2.97855886,18.6034756 3.00429868,18.7679087 3.05445832,18.9257418 L2.53843629,18.9257418 C2.0146829,18.9257418 1.51261506,18.717749 1.14226342,18.3474917 C0.772006067,17.9772343 0.564107554,17.4749779 0.564107554,16.9514131 L0.564107554,13.3072963 C0.564107554,12.7835429 0.772100352,12.281475 1.14226342,11.9111234 C1.51261506,11.5408661 2.0146829,11.3329675 2.53843629,11.3329675 L3.05464689,11.3326847 Z M18.4573339,18.4374396 C18.4573339,18.8131655 18.2568839,19.1606059 17.9315062,19.3485159 C17.6058457,19.536426 17.2049457,19.536426 16.8792852,19.3485159 C16.5539075,19.1607001 16.3533632,18.8131655 16.3533632,18.4374396 L16.3533632,11.8202326 C16.3533632,11.4442239 16.5539075,11.0969721 16.8792852,10.909062 C17.2048514,10.7211519 17.6058457,10.7211519 17.9315062,10.909062 C18.2568839,11.0969721 18.4573339,11.4442239 18.4573339,11.8202326 L18.4573339,18.4374396 Z M21.4358926,13.3070134 L21.4358926,16.9512245 C21.4358926,17.4747893 21.2279941,17.9770457 20.8577367,18.3473031 C20.4873851,18.7175605 19.9853173,18.9255533 19.4615639,18.9255533 L18.9455418,18.9255533 C18.9957015,18.7677201 19.0214413,18.603287 19.0216299,18.4376282 L19.0216299,11.8204212 C19.0214413,11.6547624 18.9957015,11.4900464 18.9455418,11.3324961 L19.4615639,11.3324961 C19.9853173,11.3324961 20.4873851,11.5403946 20.8577367,11.910652 C21.2279941,12.2810036 21.4358926,12.7830715 21.4358926,13.3068249 L21.4358926,13.3070134 Z" id="Fill-1" fill="#FFFFFF"></path>
            <path d="M19.4615639,10.7683887 L18.6153556,10.7683887 C18.3255234,10.4414082 17.9153835,10.2460496 17.4787495,10.2269097 C17.0422097,10.2076756 16.6166071,10.3664516 16.299055,10.6668437 C15.9816916,10.9673302 15.7997215,11.3835986 15.7948187,11.8206098 L15.7948187,18.4378167 C15.7997215,18.8747336 15.9816916,19.2910021 16.299055,19.5914885 C16.6166071,19.8916921 17.0422097,20.0504681 17.4787495,20.0314225 C17.9153835,20.0122826 18.3255234,19.8167355 18.6153556,19.4897549 L19.4615639,19.4897549 C20.1348533,19.4897549 20.7806116,19.2223626 21.2564682,18.7462231 C21.7326076,18.2702722 22,17.6246083 22,16.9513188 L22,13.307202 C21.9994343,12.7713801 21.8294384,12.249701 21.514432,11.8166498 C21.1992372,11.38341 20.7552489,11.0609552 20.2456383,10.895485 L20.2456383,9.25124814 C20.2456383,6.79757425 19.2709195,4.44431394 17.5360748,2.70956348 C15.8011358,0.974718745 13.4478754,0 10.9943901,0 C8.54081052,0 6.18773877,0.974718745 4.45279975,2.70956348 C2.71767216,4.44450251 1.74295341,6.79776282 1.74295341,9.25124814 L1.74295341,10.8955792 L1.74295341,10.8953907 C1.23560561,11.0628409 0.794068766,11.3861443 0.481042433,11.8191012 C0.1680161,12.2521524 0,12.7727944 0,13.3071077 L0,16.9513188 C0,17.624514 0.267392532,18.2702722 0.743531985,18.7462231 C1.21938858,19.2223626 1.86514682,19.4897549 2.53843629,19.4897549 L3.38464453,19.4897549 C3.67447674,19.8167355 4.08461667,20.0122826 4.52125069,20.0313282 C4.95779042,20.0504681 5.3833931,19.8916921 5.70094511,19.5913942 C6.01830856,19.2910021 6.20027868,18.8747336 6.20518151,18.4377225 L6.20518151,11.8205155 C6.20027868,11.3835986 6.01830856,10.9672359 5.70094511,10.6668437 C5.3833931,10.3663573 4.95779042,10.2075813 4.52125069,10.2269097 C4.08461667,10.2459553 3.67447674,10.4413139 3.38464453,10.7683887 L2.53843629,10.7683887 L2.3184693,10.7683887 L2.3184693,9.25105957 C2.3184693,6.94692176 3.23369418,4.73735184 4.86284539,3.10829492 C6.49209088,1.47923799 8.70175508,0.563918825 11.0055158,0.563918825 C13.309465,0.563918825 15.5190349,1.47923799 17.1482804,3.10829492 C18.7775259,4.73754041 19.6928451,6.94720461 19.6928451,9.25105957 L19.6928451,10.7797972 C19.6137399,10.7740458 19.5403862,10.7683887 19.4614696,10.7683887 L19.4615639,10.7683887 Z M3.54257197,11.8206098 C3.54257197,11.444601 3.74311625,11.0973492 4.06849393,10.9094391 C4.39406017,10.7215291 4.79505444,10.7215291 5.12071497,10.9094391 C5.44609265,11.0973492 5.64654264,11.444601 5.64654264,11.8206098 L5.64654264,18.4378167 C5.64654264,18.8135426 5.44609265,19.160983 5.12071497,19.3489874 C4.79505444,19.5368032 4.39415445,19.5368032 4.06849393,19.3489874 C3.74311625,19.1610773 3.54257197,18.8135426 3.54257197,18.4378167 L3.54257197,11.8206098 Z M3.05464689,11.3326847 L3.05445832,11.3326847 C3.00429868,11.490235 2.97855886,11.654951 2.97837029,11.8206098 L2.97837029,18.4378167 C2.97855886,18.6034756 3.00429868,18.7679087 3.05445832,18.9257418 L2.53843629,18.9257418 C2.0146829,18.9257418 1.51261506,18.717749 1.14226342,18.3474917 C0.772006067,17.9772343 0.564107554,17.4749779 0.564107554,16.9514131 L0.564107554,13.3072963 C0.564107554,12.7835429 0.772100352,12.281475 1.14226342,11.9111234 C1.51261506,11.5408661 2.0146829,11.3329675 2.53843629,11.3329675 L3.05464689,11.3326847 Z M18.4573339,18.4374396 C18.4573339,18.8131655 18.2568839,19.1606059 17.9315062,19.3485159 C17.6058457,19.536426 17.2049457,19.536426 16.8792852,19.3485159 C16.5539075,19.1607001 16.3533632,18.8131655 16.3533632,18.4374396 L16.3533632,11.8202326 C16.3533632,11.4442239 16.5539075,11.0969721 16.8792852,10.909062 C17.2048514,10.7211519 17.6058457,10.7211519 17.9315062,10.909062 C18.2568839,11.0969721 18.4573339,11.4442239 18.4573339,11.8202326 L18.4573339,18.4374396 Z M21.4358926,13.3070134 L21.4358926,16.9512245 C21.4358926,17.4747893 21.2279941,17.9770457 20.8577367,18.3473031 C20.4873851,18.7175605 19.9853173,18.9255533 19.4615639,18.9255533 L18.9455418,18.9255533 C18.9957015,18.7677201 19.0214413,18.603287 19.0216299,18.4376282 L19.0216299,11.8204212 C19.0214413,11.6547624 18.9957015,11.4900464 18.9455418,11.3324961 L19.4615639,11.3324961 C19.9853173,11.3324961 20.4873851,11.5403946 20.8577367,11.910652 C21.2279941,12.2810036 21.4358926,12.7830715 21.4358926,13.3068249 L21.4358926,13.3070134 Z" id="Stroke-3" stroke="#FFFFFF" stroke-width="0.75"></path>
        </g>
    </g>
</svg>